<svg width="24" height="24" viewBox="0 0 200 200" fill="none" xmlns="http://www.w3.org/2000/svg">
  <path fill-rule="evenodd" clip-rule="evenodd" d="M93.0668 97.1636C95.8491 91.6885 102.192 90.4294 106.249 92.3931C110.655 94.5222 112.654 100.603 110.742 107.738C109.575 112.591 104.891 118.444 100.745 122.582C100.322 123.005 99.7049 123.17 99.1278 123.016C93.4672 121.506 86.4847 118.777 83.0471 115.159C77.8226 109.936 76.5142 103.672 79.2652 99.6238C81.7969 95.8932 87.9206 93.8133 93.0668 97.1636ZM92.6195 101.107C88.965 97.4588 83.9619 98.68 82.0407 101.507C81.1058 102.882 80.9783 104.625 81.4704 106.461C82.034 108.565 83.396 110.768 85.4335 112.799C85.4447 112.813 85.4559 112.824 85.4671 112.835C88.3634 115.897 94.1426 118.131 99.0563 119.516C102.619 115.861 106.508 111.035 107.484 106.937C107.488 106.919 107.492 106.904 107.497 106.888C108.244 104.11 108.322 101.52 107.759 99.4158C107.267 97.5796 106.285 96.1348 104.789 95.4124C101.711 93.9228 96.7683 95.3677 95.4241 100.355C95.2698 100.932 94.818 101.384 94.2388 101.538C93.6617 101.693 93.0445 101.529 92.6195 101.107Z" fill="currentColor"></path>
  <path fill-rule="evenodd" clip-rule="evenodd" d="M110.797 104.505C109.933 104.837 108.963 104.403 108.632 103.539C108.298 102.674 108.732 101.703 109.596 101.372C113.026 100.057 116.332 98.3796 118.289 96.3108C118.3 96.2974 118.311 96.2862 118.323 96.275C120.36 94.242 121.722 92.039 122.286 89.9345C122.778 88.0983 122.65 86.356 121.715 84.9828C119.794 82.1535 114.791 80.9324 111.137 84.5802C110.712 85.0029 110.094 85.1684 109.517 85.0118C108.938 84.8575 108.486 84.4057 108.332 83.8287C106.988 78.8412 102.045 77.3964 98.9675 78.886C97.4713 79.6106 96.4894 81.0554 95.9974 82.8894C95.4338 84.9939 95.5121 87.5839 96.2591 90.3639C96.2635 90.3795 96.268 90.3952 96.2725 90.4108C96.5476 91.5738 97.0754 92.7995 97.7576 94.043C98.2049 94.8548 97.9074 95.8747 97.0955 96.3198C96.2837 96.7671 95.2638 96.4696 94.8187 95.6578C93.9845 94.1369 93.356 92.634 93.0139 91.2093C91.1016 84.0747 93.1011 77.9981 97.5071 75.8666C101.564 73.903 107.907 75.1621 110.689 80.6394C115.835 77.2868 121.959 79.3691 124.491 83.0974C127.24 87.1455 125.933 93.41 120.725 98.6167C118.477 100.992 114.733 102.996 110.797 104.505Z" fill="currentColor"></path>
</svg>
